# xmcd CD database file
#
# Track frame offsets:
#	150
#	13858
#	27943
#	43721
#	58640
#	71894
#	86784
#	99075
#	111533
#	125687
#	137911
#	151412
#	165974
#	179561
#	194004
#	209481
#	229534
#	244672
#
# Disc length: 3423 seconds
#
# Revision: 0
# Processed by: cddbd v1.5PL3 Copyright (c) Steve Scherf et al.
# Submitted via: CDex 1.51
#
DISCID=050d5d12
DTITLE=Louis Armstrong - The Complete Rca Victor Recordings Vol 2
DYEAR=1900
DGENRE=Jazz
TTITLE0=Honey, Don't You Love Me Anymore
TTITLE1=Mississippi Basin
TTITLE2=Laughin' Louie
TTITLE3=Tomorrow Night
TTITLE4=Dusky Stevedore
TTITLE5=There's A Cabin In The Pines
TTITLE6=Mighty River
TTITLE7=Sweet Sue, Just You
TTITLE8=I Wonder Who
TTITLE9=St. Louis Blues
TTITLE10=Don't Play Me Cheap
TTITLE11=That's My Home (Alternate)
TTITLE12=Hobo, You Can Ride This Train (Alternate)
TTITLE13=I Hate To Leave You Now (Alternate)
TTITLE14=You'll Wish You'd Never Been Born (Alternate)
TTITLE15=Medley Of Armstrong Hits (Alternate)
TTITLE16=Tomorrow Night (Alternate)
TTITLE17=Blue Yodel Nº 9
EXTD=
EXTT0=
EXTT1=
EXTT2=
EXTT3=
EXTT4=
EXTT5=
EXTT6=
EXTT7=
EXTT8=
EXTT9=
EXTT10=
EXTT11=
EXTT12=
EXTT13=
EXTT14=
EXTT15=
EXTT16=
EXTT17=
PLAYORDER=
